<svg xmlns="http://www.w3.org/2000/svg" version="1.1" xmlns:xlink="http://www.w3.org/1999/xlink" xmlns:svgjs="http://svgjs.dev/svgjs" viewBox="0 0 2400 800" opacity="0.85"><defs><linearGradient x1="50%" y1="0%" x2="50%" y2="100%" id="sssurf-grad"><stop stop-color="rgba(0, 153, 255, 1)" stop-opacity="1" offset="0%"></stop><stop stop-color="rgba(0, 153, 255, 0.5)" stop-opacity="1" offset="100%"></stop></linearGradient></defs><g fill="url(#sssurf-grad)" transform="matrix(1,0,0,1,2.0377197265625,318.95469665527344)"><path d="M-10,10C117.08333333333334,31.875,347.9166666666667,133.33333333333334,600,115C852.0833333333333,96.66666666666667,950,-65.08333333333333,1200,-78C1450,-90.91666666666667,1550,37.79166666666667,1800,53C2050,68.20833333333333,2222.9166666666665,-77.29166666666667,2400,-5C2577.0833333333335,67.29166666666667,3254.1666666666665,211.45833333333331,2650,400C2045.8333333333335,588.5416666666667,156.25,795.8333333333334,-500,900" transform="matrix(1,0,0,1,0,47)" opacity="0.05"></path><path d="M-10,10C117.08333333333334,31.875,347.9166666666667,133.33333333333334,600,115C852.0833333333333,96.66666666666667,950,-65.08333333333333,1200,-78C1450,-90.91666666666667,1550,37.79166666666667,1800,53C2050,68.20833333333333,2222.9166666666665,-77.29166666666667,2400,-5C2577.0833333333335,67.29166666666667,3254.1666666666665,211.45833333333331,2650,400C2045.8333333333335,588.5416666666667,156.25,795.8333333333334,-500,900" transform="matrix(1,0,0,1,0,94)" opacity="1.00"></path></g></svg>